<svg xmlns="http://www.w3.org/2000/svg" xmlns:xlink="http://www.w3.org/1999/xlink" width="419.441" height="130.254" viewBox="0 0 419.441 130.254"><defs><pattern id="a" preserveAspectRatio="none" width="100%" height="100%" viewBox="0 0 0 0"><image/></pattern></defs><g transform="translate(-195 -138.705)"><g transform="translate(195 146)"><text transform="translate(135.441 103.96)" fill="#fdc11f" font-size="53" font-family="Poppins-SemiBold, Poppins" font-weight="600" letter-spacing="0.02em"><tspan x="0" y="0">Marketing</tspan></text><text transform="translate(135.441 46.705)" fill="#fff" font-size="51" font-family="Poppins-Regular, Poppins" letter-spacing="0.02em"><tspan x="0" y="0">Creative</tspan></text><g transform="translate(-161.578 -274.638)"><path d="M245.641,283.421c-.5,3.59,1.367,6.511,3.582,9.343,3.263,4.171,6.464,8.391,9.663,12.613a16.237,16.237,0,0,0,6.907,5.537c2.277.917,3.669,2.552,3.53,5.166a4.928,4.928,0,0,1-3.547,4.634c-2.293.807-4.185-.146-5.654-1.911-2.97-3.569-7.294-4.414-11.354-5.759-10.242-3.394-20.512-6.7-30.749-10.111a3.317,3.317,0,0,0-3.487.543q-11.855,9.35-23.789,18.6c-2.591,2-1.138,4.5-.955,6.711.722,8.67,1.723,17.315,2.566,25.976a2.971,2.971,0,0,0,1.1,2.221q9.2,7.42,18.387,14.855a2.51,2.51,0,0,0,2.455.257q20.018-5.469,40.032-10.951a12.824,12.824,0,0,0,5.918-3.7c1.81-1.9,3.975-2.622,6.38-1.3a4.744,4.744,0,0,1,2.646,5.338,5.033,5.033,0,0,1-5.1,4.294c-3.985.218-6.683,2.812-9.546,5.1-5.257,4.2-10.475,8.447-15.743,12.633a14,14,0,0,0-4.668,6.481c-1.17,3.339-5.134,4.874-7.471,2.514-3.845-3.883-8.773-4.514-13.6-5.671-1.786-.429-3.615-.7-5.375-1.215-4.193-1.223-8.154-1.325-12.081,1.136a5.808,5.808,0,0,1-6.96-.622c-2.344-1.918-3.936-4.266-3.06-7.64a9.656,9.656,0,0,0-1.144-7.666q-7.213-11.689-14.561-23.293a12.654,12.654,0,0,0-5.145-4.477c-3.919-1.98-4.359-6.523-.906-9.146,3.405-2.587,4.391-6.506,5.734-10.223,2.993-8.286,5.908-16.6,8.907-24.883a13.858,13.858,0,0,0,.557-7.652,5.121,5.121,0,0,1,1.719-5.3,4.721,4.721,0,0,1,5.467-.673c5.014,2.466,10.067.656,15.067.043,7.861-.964,15.682-2.247,23.536-3.272a11.539,11.539,0,0,0,7.7-4.086c2.462-2.9,5.4-3.871,8.033-2.792C244.312,276.575,245.8,278.976,245.641,283.421Zm-10.2,5.785a9.725,9.725,0,0,0-5.535,2.162q-4.138,3.2-8.24,6.444c-.464.368-1.329.554-1.176,1.312.143.712.979.682,1.56.87q16.6,5.351,33.208,10.7c.689.222,1.515.858,2.028.115.4-.586-.323-1.254-.731-1.79q-5.9-7.755-11.822-15.5C242.6,290.727,239.79,289.315,235.436,289.206Zm-48.713,9.756c.549,5.484,1.167,11.614,1.772,17.745.144,1.464.8,1.268,1.679.584q9.92-7.743,19.853-15.468c1.085-.84.925-1.263-.3-1.662-5.894-1.921-11.761-3.928-17.672-5.794C187.888,293.05,186.673,294.012,186.723,298.961Zm43.119,84.564a10.932,10.932,0,0,0,6.325-2.707c5.878-4.612,11.7-9.3,17.525-13.974.325-.26.994-.47.718-1.009-.243-.474-.811-.2-1.249-.083q-17.107,4.663-34.212,9.333c-.586.161-1.468.375-1.612.779-.289.814.723,1.03,1.213,1.439,1.588,1.327,3.191,2.643,4.862,3.86A10.591,10.591,0,0,0,229.842,383.526ZM187.96,351.31c-.654-7.117-1.285-14.235-1.985-21.347-.1-1.051.265-2.6-.644-3.04-1.123-.537-1.874.979-2.788,1.591s-1.761,1.3-2.605,1.988c-2.522,2.064-5.428,3.7-7.124,6.68a1.874,1.874,0,0,0,.057,2.345c3.821,5.208,9.568,8.2,14.218,12.448C187.771,352.6,188.088,352.054,187.96,351.31Zm41.079-64.724c.014-.723-.391-.821-.8-.809a27.9,27.9,0,0,0-2.919.167q-15.014,2.013-30.021,4.067c-.425.058-1.08-.122-1.143.476-.07.659.63.726,1.092.874,6.287,2.019,12.584,4.008,18.864,6.048a1.872,1.872,0,0,0,1.918-.282q6.034-4.749,12.063-9.5A7.891,7.891,0,0,0,229.039,286.586ZM184.963,320.3q-.87-9.631-1.742-19.262c-.036-.394-.038-.9-.555-.932-.6-.034-.658.542-.8.963q-4.973,14.352-9.941,28.7c-.147.423-.525.955-.023,1.225.268.144.884-.118,1.211-.369q5.461-4.206,10.873-8.475C184.573,321.688,185.145,321.175,184.963,320.3Zm16.509,54.954a17.608,17.608,0,0,0,5.043-.939,4.377,4.377,0,0,0,.975-.585,4.7,4.7,0,0,0-.68-.892c-3.12-2.521-6.216-5.076-9.409-7.5-1.294-.982-2.936-3.222-3.833-2.636-1.277.833-.148,3.121.023,4.764C194.125,372.605,196.809,375.2,201.472,375.252Zm-11.866-7.777a45.984,45.984,0,0,1-.625-6.142c.059-2.389-1.069-3.753-2.855-5.068-3.046-2.243-5.92-4.719-8.879-7.08-.375-.3-.77-1.046-1.228-.665-.59.491.133,1.029.4,1.467q5.613,9.1,11.28,18.162c.4.64.721,1.83,1.57,1.543C190.194,369.38,189.383,368.254,189.606,367.474Zm29.6,16.932c.3-.077.772-.06.886-.254.316-.539-.217-.816-.555-1.089-2.28-1.843-4.557-3.69-6.876-5.483a1.921,1.921,0,0,0-1.407-.411c-2.336.591-4.645,1.288-6.96,1.961-.441.128-.954.279-.936.855.019.6.586.633,1.013.74C209.3,381.954,214.232,383.172,219.211,384.406Z" fill="#fdc11f"/></g><rect fill="url(#a)"/></g></g></svg>