<svg xmlns="http://www.w3.org/2000/svg" width="172" height="172" viewBox="0 0 172 172"><g transform="translate(-3268 -94)"><circle cx="86" cy="86" r="86" transform="translate(3268 94)" fill="#fdc11f" opacity="0.361"/><circle cx="62" cy="62" r="62" transform="translate(3292 118)" fill="#fdc11f"/><g transform="translate(2957.485 -164.846)"><path d="M423.285,364.5,412.818,354.47a5.1,5.1,0,0,0-.984-.851,22.747,22.747,0,0,0,3.237-11.727,23.2,23.2,0,1,0-10.109,19,1.462,1.462,0,0,0,.112.154l10.466,10.037a5.137,5.137,0,0,0,7.194.545A5.018,5.018,0,0,0,423.285,364.5ZM391.8,356.72a14.828,14.828,0,1,1,14.972-14.828A14.9,14.9,0,0,1,391.8,356.72Z" fill="#20364b"/></g></g></svg>